<?xml version="1.0" encoding="utf-8"?>
<!-- Generator: Adobe Illustrator 25.2.0, SVG Export Plug-In . SVG Version: 6.00 Build 0)  -->
<svg version="1.1" id="Layer_1" xmlns="http://www.w3.org/2000/svg" xmlns:xlink="http://www.w3.org/1999/xlink" x="0px" y="0px"
	 viewBox="0 0 220 108" style="enable-background:new 0 0 220 108;" xml:space="preserve">
<style type="text/css">
	.st0{fill:url(#SVGID_1_);}
	.st1{fill:url(#SVGID_2_);}
	.st2{fill:url(#SVGID_3_);}
	.st3{fill:url(#SVGID_4_);}
	.st4{fill:url(#SVGID_5_);}
	.st5{fill:url(#SVGID_6_);}
	.st6{fill:#385A9E;}
	.st7{fill:url(#SVGID_7_);}
	.st8{fill:url(#SVGID_8_);}
	.st9{fill:url(#SVGID_9_);}
</style>
<rect x="-359" y="-103" width="300" height="300"/>
<g>
	<linearGradient id="SVGID_1_" gradientUnits="userSpaceOnUse" x1="360.9597" y1="-85.5361" x2="463.6661" y2="43.7596">
		<stop  offset="0" style="stop-color:#385A9E"/>
		<stop  offset="0.162" style="stop-color:#4776A2"/>
		<stop  offset="0.3907" style="stop-color:#5896A8"/>
		<stop  offset="0.6116" style="stop-color:#65ADAC"/>
		<stop  offset="0.8193" style="stop-color:#6CBBAE"/>
		<stop  offset="1" style="stop-color:#6FBFAF"/>
	</linearGradient>
	<path class="st0" d="M412.31,61.71c-45.54,0-82.6-37.05-82.6-82.6c0-45.54,37.05-82.6,82.6-82.6s82.6,37.05,82.6,82.6
		C494.91,24.66,457.86,61.71,412.31,61.71z M412.31-95.38c-41.08,0-74.49,33.42-74.49,74.49s33.42,74.49,74.49,74.49
		s74.49-33.42,74.49-74.49S453.39-95.38,412.31-95.38z"/>
</g>
<g>
	<linearGradient id="SVGID_2_" gradientUnits="userSpaceOnUse" x1="-235.7709" y1="-17.186" x2="-281.7739" y2="-43.0515">
		<stop  offset="0" style="stop-color:#385A9E"/>
		<stop  offset="0.1674" style="stop-color:#3C639F"/>
		<stop  offset="0.4393" style="stop-color:#4A7BA3"/>
		<stop  offset="0.7795" style="stop-color:#5FA2AA"/>
		<stop  offset="1" style="stop-color:#6FBFAF"/>
	</linearGradient>
	<polygon class="st1" points="-280.53,-45.27 -277.49,-46.21 -237,-15 -240,-14 	"/>
	<linearGradient id="SVGID_3_" gradientUnits="userSpaceOnUse" x1="-189.8065" y1="-34.6597" x2="-233.1178" y2="-59.0119">
		<stop  offset="0" style="stop-color:#385A9E"/>
		<stop  offset="0.1674" style="stop-color:#3C639F"/>
		<stop  offset="0.4393" style="stop-color:#4A7BA3"/>
		<stop  offset="0.7795" style="stop-color:#5FA2AA"/>
		<stop  offset="1" style="stop-color:#6FBFAF"/>
	</linearGradient>
	<polygon class="st2" points="-191.02,-32.51 -193.82,-31.61 -232,-61 -229,-62 	"/>
	<g>
		<linearGradient id="SVGID_4_" gradientUnits="userSpaceOnUse" x1="-208.1699" y1="28.7774" x2="-272.6229" y2="-14.4555">
			<stop  offset="0" style="stop-color:#385A9E"/>
			<stop  offset="0.162" style="stop-color:#4776A2"/>
			<stop  offset="0.3907" style="stop-color:#5896A8"/>
			<stop  offset="0.6116" style="stop-color:#65ADAC"/>
			<stop  offset="0.8193" style="stop-color:#6CBBAE"/>
			<stop  offset="1" style="stop-color:#6FBFAF"/>
		</linearGradient>
		<path class="st3" d="M-192.65-28.84c0.37,0.9,0.7,1.81,0.99,2.72c6.15,19.28-4.54,39.96-23.81,46.1l-0.13,0.04
			c-0.09,0.02-0.17,0.05-0.26,0.08l-2.52,0.77l0.01,0.04l-69.76,22.24c-0.37-0.9-0.7-1.81-0.99-2.72
			c-6.15-19.28,4.53-39.96,23.81-46.1l0.13-0.04c0.09-0.02,0.17-0.05,0.26-0.08l2.53-0.78l-0.01-0.04l15.92-5.08L-192.65-28.84
			 M-191.02-32.51l-56.39,17.98l-18.41,5.87c0,0,0,0.01,0,0.01c-0.14,0.04-0.28,0.08-0.42,0.12c-20.88,6.66-32.42,28.99-25.76,49.87
			c0.61,1.91,1.35,3.74,2.21,5.48l74.79-23.85c0,0,0-0.01,0-0.01c0.14-0.04,0.28-0.08,0.42-0.12c20.88-6.66,32.42-28.99,25.76-49.87
			C-189.42-28.93-190.16-30.76-191.02-32.51L-191.02-32.51z"/>
	</g>
	<g>
		<linearGradient id="SVGID_5_" gradientUnits="userSpaceOnUse" x1="-263.1326" y1="-106.2504" x2="-198.6795" y2="-63.0175">
			<stop  offset="0" style="stop-color:#385A9E"/>
			<stop  offset="0.162" style="stop-color:#4776A2"/>
			<stop  offset="0.3907" style="stop-color:#5896A8"/>
			<stop  offset="0.6116" style="stop-color:#65ADAC"/>
			<stop  offset="0.8193" style="stop-color:#6CBBAE"/>
			<stop  offset="1" style="stop-color:#6FBFAF"/>
		</linearGradient>
		<path class="st4" d="M-183.23-120.54c0.37,0.9,0.7,1.81,0.99,2.72c6.15,19.28-4.53,39.96-23.81,46.1l-0.13,0.04
			c-0.09,0.02-0.17,0.05-0.26,0.08l-2.52,0.77l0.01,0.04l-19.69,6.28l-50.22,15.58c-0.31-0.78-0.59-1.56-0.84-2.34
			c-6.15-19.28,4.53-39.96,23.81-46.1l0.13-0.04c0.09-0.02,0.18-0.05,0.26-0.08l2.53-0.78l-0.01-0.04L-183.23-120.54
			 M-181.59-124.21l-74.79,23.85c0,0,0,0.01,0,0.01c-0.14,0.04-0.28,0.08-0.42,0.12c-20.88,6.66-32.42,28.99-25.76,49.87
			c0.56,1.77,1.25,3.46,2.03,5.09l52.78-16.38l22.19-7.08c0,0,0-0.01,0-0.01c0.14-0.04,0.28-0.08,0.42-0.12
			c20.88-6.66,32.42-28.99,25.76-49.87C-179.99-120.63-180.73-122.46-181.59-124.21L-181.59-124.21z"/>
	</g>
</g>
<g>
	<linearGradient id="SVGID_6_" gradientUnits="userSpaceOnUse" x1="334.5341" y1="-327.5834" x2="415.7784" y2="-225.306">
		<stop  offset="0" style="stop-color:#385A9E"/>
		<stop  offset="0.162" style="stop-color:#4776A2"/>
		<stop  offset="0.3907" style="stop-color:#5896A8"/>
		<stop  offset="0.6116" style="stop-color:#65ADAC"/>
		<stop  offset="0.8193" style="stop-color:#6CBBAE"/>
		<stop  offset="1" style="stop-color:#6FBFAF"/>
	</linearGradient>
	<path class="st5" d="M375.16-211.11c-36.03,0-65.34-29.31-65.34-65.34c0-36.03,29.31-65.34,65.34-65.34s65.34,29.31,65.34,65.34
		C440.49-240.42,411.18-211.11,375.16-211.11z M375.16-335.37c-32.49,0-58.93,26.43-58.93,58.93s26.43,58.93,58.93,58.93
		s58.93-26.43,58.93-58.93S407.65-335.37,375.16-335.37z"/>
</g>
<g>
	<g>
		<g>
			<path class="st6" d="M90.01,49.43c-0.94-0.29-1.69-0.67-2.24-1.14l0.84-1.89c0.54,0.42,1.2,0.77,1.98,1.04s1.57,0.4,2.35,0.4
				c0.97,0,1.7-0.16,2.18-0.47c0.48-0.31,0.72-0.72,0.72-1.24c0-0.38-0.13-0.68-0.4-0.93c-0.27-0.24-0.61-0.43-1.02-0.57
				c-0.41-0.14-0.97-0.29-1.69-0.47c-1-0.24-1.81-0.47-2.43-0.71c-0.62-0.24-1.15-0.61-1.59-1.12c-0.44-0.51-0.67-1.19-0.67-2.05
				c0-0.72,0.2-1.38,0.59-1.98c0.39-0.59,0.99-1.06,1.78-1.41c0.79-0.35,1.77-0.52,2.91-0.52c0.8,0,1.59,0.1,2.36,0.3
				c0.77,0.2,1.44,0.49,2.01,0.86l-0.77,1.89c-0.58-0.34-1.17-0.59-1.8-0.77c-0.63-0.18-1.23-0.26-1.82-0.26
				c-0.96,0-1.68,0.16-2.15,0.49c-0.47,0.32-0.7,0.76-0.7,1.29c0,0.38,0.13,0.68,0.4,0.92c0.27,0.24,0.61,0.43,1.02,0.56
				c0.41,0.14,0.97,0.29,1.69,0.47c0.97,0.22,1.77,0.46,2.4,0.7c0.63,0.24,1.16,0.61,1.6,1.12c0.44,0.5,0.67,1.17,0.67,2.02
				c0,0.72-0.2,1.38-0.59,1.97c-0.39,0.59-0.99,1.06-1.79,1.41c-0.8,0.35-1.78,0.52-2.92,0.52C91.93,49.86,90.95,49.71,90.01,49.43z
				"/>
			<path class="st6" d="M112.42,36.55v13.12h-2.44v-5.62h-6.79v5.62h-2.44V36.55h2.44v5.42h6.79v-5.42H112.42z"/>
			<path class="st6" d="M125.88,47.63v2.04h-9.84V36.55h9.58v2.04h-7.14V42h6.34v2.01h-6.34v3.62H125.88z"/>
			<path class="st6" d="M131.13,38.59v3.99h6.34v2.06h-6.34v5.02h-2.44V36.55h9.58v2.04H131.13z"/>
			<path class="st6" d="M143.16,38.59v3.99h6.34v2.06h-6.34v5.02h-2.44V36.55h9.58v2.04H143.16z"/>
			<path class="st6" d="M155.12,48.99c-1.07-0.58-1.92-1.39-2.53-2.42c-0.61-1.03-0.92-2.18-0.92-3.46c0-1.27,0.31-2.43,0.92-3.46
				c0.61-1.03,1.46-1.84,2.53-2.42c1.07-0.58,2.28-0.87,3.62-0.87c1.34,0,2.54,0.29,3.62,0.87c1.07,0.58,1.92,1.38,2.53,2.41
				s0.92,2.18,0.92,3.47c0,1.29-0.31,2.44-0.92,3.47c-0.61,1.03-1.46,1.83-2.53,2.41c-1.08,0.58-2.28,0.87-3.62,0.87
				C157.4,49.86,156.2,49.57,155.12,48.99z M161.1,47.13c0.7-0.39,1.25-0.94,1.65-1.65c0.4-0.71,0.6-1.5,0.6-2.37
				c0-0.87-0.2-1.66-0.6-2.37c-0.4-0.71-0.95-1.26-1.65-1.65c-0.7-0.39-1.49-0.59-2.36-0.59c-0.87,0-1.66,0.2-2.36,0.59
				c-0.7,0.39-1.25,0.94-1.65,1.65c-0.4,0.71-0.6,1.5-0.6,2.37c0,0.88,0.2,1.67,0.6,2.37c0.4,0.71,0.95,1.26,1.65,1.65
				c0.7,0.39,1.49,0.59,2.36,0.59C159.62,47.72,160.4,47.52,161.1,47.13z"/>
			<path class="st6" d="M177.08,49.67l-2.68-3.84c-0.11,0.01-0.28,0.02-0.51,0.02h-2.96v3.82h-2.44V36.55h5.4
				c1.14,0,2.13,0.19,2.97,0.56s1.49,0.91,1.94,1.61c0.45,0.7,0.68,1.53,0.68,2.49c0,0.99-0.24,1.84-0.72,2.55
				c-0.48,0.71-1.17,1.24-2.07,1.59l3.02,4.31H177.08z M176.2,39.28c-0.55-0.45-1.36-0.67-2.42-0.67h-2.85v5.23h2.85
				c1.06,0,1.87-0.23,2.42-0.68c0.55-0.46,0.82-1.1,0.82-1.94S176.75,39.73,176.2,39.28z"/>
			<path class="st6" d="M182.29,36.55h5.74c1.4,0,2.64,0.27,3.73,0.82s1.93,1.31,2.53,2.31c0.6,0.99,0.9,2.14,0.9,3.44
				s-0.3,2.45-0.9,3.44c-0.6,0.99-1.44,1.76-2.53,2.31c-1.09,0.54-2.33,0.82-3.73,0.82h-5.74V36.55z M187.91,47.61
				c0.96,0,1.81-0.18,2.54-0.55s1.29-0.89,1.69-1.57c0.39-0.68,0.59-1.47,0.59-2.37c0-0.9-0.2-1.69-0.59-2.37
				c-0.39-0.68-0.96-1.21-1.69-1.57c-0.73-0.37-1.58-0.55-2.54-0.55h-3.19v9H187.91z"/>
		</g>
		<g>
			<path class="st6" d="M98.79,65.82c0.42,0.56,0.64,1.25,0.64,2.07c0,1.14-0.44,2.02-1.31,2.63c-0.87,0.62-2.15,0.93-3.82,0.93
				h-6.52V58.33h6.15c1.55,0,2.74,0.3,3.58,0.91c0.84,0.61,1.26,1.44,1.26,2.5c0,0.65-0.15,1.23-0.45,1.72
				c-0.3,0.5-0.71,0.89-1.24,1.16C97.79,64.87,98.37,65.26,98.79,65.82z M90.2,60.24v3.62h3.45c0.85,0,1.5-0.15,1.96-0.46
				c0.46-0.31,0.68-0.75,0.68-1.34c0-0.6-0.23-1.05-0.68-1.36c-0.46-0.31-1.11-0.46-1.96-0.46H90.2z M96.97,67.65
				c0-1.26-0.94-1.89-2.83-1.89H90.2v3.79h3.94C96.03,69.54,96.97,68.91,96.97,67.65z"/>
			<path class="st6" d="M102.13,58.33h2.44v13.12h-2.44V58.33z"/>
			<path class="st6" d="M114.6,71.21c-0.94-0.29-1.69-0.67-2.24-1.14l0.84-1.89c0.54,0.42,1.2,0.77,1.98,1.04
				c0.78,0.27,1.57,0.4,2.35,0.4c0.97,0,1.7-0.16,2.18-0.47c0.48-0.31,0.72-0.72,0.72-1.24c0-0.38-0.13-0.68-0.4-0.93
				c-0.27-0.24-0.61-0.43-1.02-0.57c-0.41-0.14-0.97-0.29-1.69-0.47c-1-0.24-1.81-0.47-2.43-0.71c-0.62-0.24-1.15-0.61-1.59-1.12
				c-0.44-0.51-0.67-1.19-0.67-2.05c0-0.72,0.2-1.38,0.59-1.98c0.4-0.59,0.99-1.06,1.78-1.41c0.79-0.35,1.77-0.52,2.92-0.52
				c0.8,0,1.59,0.1,2.36,0.3c0.78,0.2,1.44,0.49,2.01,0.86l-0.77,1.89c-0.58-0.34-1.17-0.59-1.8-0.77
				c-0.62-0.18-1.23-0.26-1.82-0.26c-0.96,0-1.68,0.16-2.15,0.49c-0.47,0.32-0.7,0.76-0.7,1.29c0,0.38,0.13,0.68,0.4,0.92
				c0.27,0.24,0.61,0.43,1.02,0.56c0.41,0.14,0.97,0.29,1.69,0.47c0.97,0.22,1.77,0.46,2.4,0.7c0.63,0.24,1.16,0.61,1.6,1.12
				c0.44,0.5,0.67,1.17,0.67,2.02c0,0.72-0.2,1.38-0.59,1.97c-0.39,0.59-0.99,1.06-1.79,1.41c-0.8,0.35-1.77,0.52-2.92,0.52
				C116.52,71.64,115.55,71.5,114.6,71.21z"/>
			<path class="st6" d="M127.87,70.77c-1.08-0.58-1.92-1.39-2.53-2.42c-0.61-1.03-0.92-2.18-0.92-3.46c0-1.27,0.31-2.43,0.92-3.46
				c0.61-1.03,1.46-1.84,2.53-2.42c1.07-0.58,2.28-0.87,3.62-0.87c1.34,0,2.54,0.29,3.62,0.87c1.07,0.58,1.92,1.38,2.53,2.41
				c0.61,1.03,0.92,2.18,0.92,3.47c0,1.29-0.31,2.44-0.92,3.47c-0.61,1.03-1.46,1.83-2.53,2.41c-1.08,0.58-2.28,0.87-3.62,0.87
				C130.15,71.64,128.94,71.35,127.87,70.77z M133.85,68.91c0.7-0.39,1.25-0.94,1.65-1.65s0.6-1.5,0.6-2.37
				c0-0.87-0.2-1.66-0.6-2.37s-0.95-1.26-1.65-1.65c-0.7-0.39-1.49-0.59-2.36-0.59c-0.87,0-1.66,0.2-2.36,0.59s-1.25,0.94-1.65,1.65
				c-0.4,0.71-0.6,1.5-0.6,2.37c0,0.88,0.2,1.67,0.6,2.37c0.4,0.71,0.95,1.26,1.65,1.65s1.49,0.59,2.36,0.59
				C132.36,69.5,133.15,69.31,133.85,68.91z"/>
			<path class="st6" d="M141.23,58.33h2.44v11.06h6.86v2.06h-9.3V58.33z"/>
			<path class="st6" d="M153.78,70.11c-1.01-1.02-1.52-2.48-1.52-4.38v-7.41h2.44v7.31c0,2.57,1.11,3.86,3.34,3.86
				c2.21,0,3.32-1.29,3.32-3.86v-7.31h2.4v7.41c0,1.9-0.5,3.36-1.51,4.38c-1.01,1.02-2.42,1.53-4.23,1.53
				C156.2,71.64,154.79,71.13,153.78,70.11z"/>
			<path class="st6" d="M169.67,60.39h-4.35v-2.06h11.14v2.06h-4.35v11.06h-2.44V60.39z"/>
			<path class="st6" d="M178.39,58.33h2.44v13.12h-2.44V58.33z"/>
			<path class="st6" d="M186.97,70.77c-1.08-0.58-1.92-1.39-2.53-2.42c-0.61-1.03-0.92-2.18-0.92-3.46c0-1.27,0.31-2.43,0.92-3.46
				c0.61-1.03,1.46-1.84,2.53-2.42c1.07-0.58,2.28-0.87,3.62-0.87c1.34,0,2.54,0.29,3.62,0.87c1.07,0.58,1.92,1.38,2.53,2.41
				c0.61,1.03,0.92,2.18,0.92,3.47c0,1.29-0.31,2.44-0.92,3.47c-0.61,1.03-1.46,1.83-2.53,2.41c-1.08,0.58-2.28,0.87-3.62,0.87
				C189.25,71.64,188.05,71.35,186.97,70.77z M192.95,68.91c0.7-0.39,1.25-0.94,1.65-1.65s0.6-1.5,0.6-2.37
				c0-0.87-0.2-1.66-0.6-2.37s-0.95-1.26-1.65-1.65c-0.7-0.39-1.49-0.59-2.36-0.59c-0.87,0-1.66,0.2-2.36,0.59s-1.25,0.94-1.65,1.65
				c-0.4,0.71-0.6,1.5-0.6,2.37c0,0.88,0.2,1.67,0.6,2.37c0.4,0.71,0.95,1.26,1.65,1.65s1.49,0.59,2.36,0.59
				C191.47,69.5,192.25,69.31,192.95,68.91z"/>
			<path class="st6" d="M212,58.33v13.12h-2.01l-7.24-8.89v8.89h-2.42V58.33h2.01l7.24,8.89v-8.89H212z"/>
		</g>
	</g>
	<g>
		
			<linearGradient id="SVGID_7_" gradientUnits="userSpaceOnUse" x1="12.6671" y1="-44.9203" x2="-17.3152" y2="-81.6896" gradientTransform="matrix(0.9307 -0.3658 0.3658 0.9307 57.0474 110.0071)">
			<stop  offset="0" style="stop-color:#385A9E"/>
			<stop  offset="0.1674" style="stop-color:#3C639F"/>
			<stop  offset="0.4393" style="stop-color:#4A7BA3"/>
			<stop  offset="0.7795" style="stop-color:#5FA2AA"/>
			<stop  offset="1" style="stop-color:#6FBFAF"/>
		</linearGradient>
		<polygon class="st7" points="14.67,50.19 50.8,83.41 64.91,57.7 31.71,31.19 		"/>
		
			<linearGradient id="SVGID_8_" gradientUnits="userSpaceOnUse" x1="-0.0727" y1="-79.7625" x2="33.4002" y2="-37.6238" gradientTransform="matrix(0.9527 -0.3038 0.3038 0.9527 53.7403 95.7206)">
			<stop  offset="0" style="stop-color:#385A9E"/>
			<stop  offset="0.162" style="stop-color:#4776A2"/>
			<stop  offset="0.3907" style="stop-color:#5896A8"/>
			<stop  offset="0.6116" style="stop-color:#65ADAC"/>
			<stop  offset="0.8193" style="stop-color:#6CBBAE"/>
			<stop  offset="1" style="stop-color:#6FBFAF"/>
		</linearGradient>
		<path class="st8" d="M69.58,6.35L28.14,19.56c0,0,0,0,0,0.01c-0.08,0.02-0.16,0.04-0.23,0.07C16.34,23.32,9.95,35.69,13.64,47.26
			c0.34,1.06,0.75,2.07,1.22,3.04L56.3,37.09c0,0,0,0,0-0.01c0.08-0.02,0.16-0.04,0.23-0.07C68.1,33.32,74.49,20.95,70.8,9.38
			C70.46,8.33,70.05,7.31,69.58,6.35z"/>
		
			<linearGradient id="SVGID_9_" gradientUnits="userSpaceOnUse" x1="434.2187" y1="159.3674" x2="467.6916" y2="201.5061" gradientTransform="matrix(-0.9527 0.3038 -0.3038 -0.9527 512.4442 108.1715)">
			<stop  offset="0" style="stop-color:#385A9E"/>
			<stop  offset="0.162" style="stop-color:#4776A2"/>
			<stop  offset="0.3907" style="stop-color:#5896A8"/>
			<stop  offset="0.6116" style="stop-color:#65ADAC"/>
			<stop  offset="0.8193" style="stop-color:#6CBBAE"/>
			<stop  offset="1" style="stop-color:#6FBFAF"/>
		</linearGradient>
		<path class="st9" d="M10.2,101.65l41.44-13.21c0,0,0,0,0-0.01c0.08-0.02,0.16-0.04,0.23-0.07c11.57-3.69,17.96-16.06,14.27-27.63
			c-0.34-1.06-0.75-2.07-1.22-3.04L23.47,70.91c0,0,0,0,0,0.01c-0.08,0.02-0.16,0.04-0.23,0.07C11.67,74.68,5.28,87.05,8.97,98.62
			C9.31,99.67,9.72,100.69,10.2,101.65z"/>
	</g>
</g>
</svg>
